<svg width="711" height="711" viewBox="0 0 711 711" fill="none" xmlns="http://www.w3.org/2000/svg">
<path d="M19.6613 0.66132H691.661C701.969 0.66132 710.333 9.02065 710.333 19.3333V691.333C710.333 701.641 701.974 710.005 691.661 710.005H19.6613C9.35393 710.005 0.989258 701.646 0.989258 691.333V19.3333C0.989258 9.02599 9.3486 0.66132 19.6613 0.66132V0.66132ZM418.248 348.821L315.612 289.551C314.581 288.993 313.549 288.712 312.549 288.712C311.544 288.712 310.502 288.993 309.544 289.551C308.461 290.176 307.659 290.915 307.226 291.676C306.794 292.493 306.555 293.545 306.555 294.79V413.342C306.555 414.587 306.794 415.634 307.226 416.384C307.81 417.405 308.523 417.978 309.544 418.582C310.508 419.139 311.539 419.42 312.544 419.42C313.549 419.42 314.581 419.139 315.544 418.582C349.815 400.108 384.367 378.879 418.216 359.311C419.3 358.686 420.102 357.947 420.534 357.186C420.966 356.368 421.206 355.316 421.206 354.071C421.206 352.821 420.966 351.769 420.534 351.019C419.971 350.004 419.284 349.394 418.248 348.821L418.248 348.821ZM385.545 286.957L436.873 316.597C443.16 320.274 448.274 325.222 451.947 331.076C456.332 337.993 458.546 345.883 458.546 354.065C458.546 361.862 456.525 369.253 452.759 375.768C448.983 382.232 443.603 387.638 436.874 391.528C403.024 411.08 367.311 430.377 334.202 450.799C327.322 454.767 319.926 456.752 312.54 456.752C305.139 456.752 297.748 454.767 290.879 450.799C284.598 447.174 279.504 442.226 275.8 436.309C271.426 429.387 269.212 421.528 269.212 413.336V294.784C269.212 286.987 271.233 279.596 274.998 273.081C278.774 266.618 284.155 261.212 290.884 257.321C297.753 253.353 305.154 251.368 312.55 251.368C319.941 251.368 327.342 253.353 334.201 257.321L385.545 286.952L385.545 286.957ZM672.999 542.024H547.171V672.675H672.999V542.024ZM547.171 504.685H672.999V374.024H547.171V504.685ZM164.157 542.024H38.3399V672.675H164.157V542.024ZM38.3399 504.685H164.157V374.024H38.3399V504.685ZM547.18 38.0187V168.691H673.008V38.0187H547.18ZM547.18 206.032V336.693H673.008V206.032H547.18ZM164.167 336.693V206.032H38.3493V336.693H164.167ZM164.167 168.693V38.0213H38.3493V168.693H164.167ZM201.505 38.0213V672.688H509.839V38.0213H201.505Z" fill="black"/>
</svg>
