<svg width="850" height="850" viewBox="0 0 850 850" fill="none" xmlns="http://www.w3.org/2000/svg">
<circle r="425" transform="matrix(-1 0 0 1 425 425)" fill="#1C98CB"/>
<path fill-rule="evenodd" clip-rule="evenodd" d="M602 425.333C602 409.87 589.464 397.333 574 397.333H275.333C259.869 397.333 247.333 409.87 247.333 425.333C247.333 440.797 259.869 453.333 275.333 453.333H574C589.464 453.333 602 440.797 602 425.333Z" fill="white"/>
<path fill-rule="evenodd" clip-rule="evenodd" d="M404.868 256.201C393.933 267.136 393.933 284.864 404.868 295.799L534.402 425.333L404.868 554.868C393.933 565.802 393.933 583.531 404.868 594.466C415.802 605.4 433.531 605.4 444.466 594.466L593.799 445.132C604.734 434.198 604.734 416.469 593.799 405.534L444.466 256.201C433.531 245.266 415.802 245.266 404.868 256.201Z" fill="white"/>
</svg>
