<svg width="756" height="755" viewBox="0 0 756 755" fill="none" xmlns="http://www.w3.org/2000/svg">
<g filter="url(#filter0_d_3_163)">
<path d="M600.84 236.32H697.908C728.372 236.32 747.111 255.361 747.111 285.899V697.165C747.111 727.029 727.845 746.592 697.605 746.592L53.7521 746.597C23.3668 746.67 4.32544 727.332 4.32544 696.045V428.445V223.565C4.32544 193.101 15.7473 178.315 45.3148 170.253L659.075 2.18652C687.299 -5.28228 711.34 7.56146 719.179 35.5612C729.132 71.8999 739.091 108.311 749.043 144.801H749.048C752.798 157.223 751.157 170.656 744.527 181.817C737.897 192.973 726.887 200.839 714.178 203.489L605.688 233.353C603.97 233.801 602.256 234.546 600.537 235.145L600.84 236.32ZM700.595 422.093H50.9948V699.787H700.595V422.093ZM517.888 88.48C518.43 89.7144 519.055 90.9122 519.753 92.0633C542.971 122.902 566.122 153.741 589.638 184.35L589.643 184.355C591.987 186.543 595.211 187.532 598.378 187.043C609.206 184.652 619.883 181.293 630.56 178.381L681.258 164.267C681.2 163.449 681.023 162.647 680.737 161.876C657.065 130.365 633.471 98.8545 609.502 67.5732C607.492 65.7243 604.726 64.9221 602.039 65.4065C574.263 73.0263 546.56 80.6412 517.888 88.4799L517.888 88.48ZM525.357 206.901C500.341 173.672 476.378 141.792 452.034 109.833C449.586 108.161 446.519 107.667 443.67 108.49C421.94 114.537 400.066 120.661 377.664 126.932L360.044 131.713L424.632 217.432C435.309 231.62 435.309 231.692 452.632 226.989L525.357 206.901ZM352.797 282.24H267.302C262.339 281.542 257.677 284.803 256.625 289.709C245.724 317.782 234.224 345.709 223.251 373.709L213.396 397.454C214.376 397.892 215.402 398.22 216.459 398.423H301.282H301.276C304.391 397.668 306.979 395.517 308.297 392.6C315.318 376.1 321.734 359.371 328.38 342.797L352.797 282.24ZM515.344 282.24H425.745C422.964 283.276 420.776 285.49 419.776 288.287C405.74 322.782 392 357.355 378.188 391.923L378.183 391.928C377.49 394.006 376.917 396.126 376.469 398.272H464.573C467.219 397.595 469.412 395.756 470.547 393.272C474.355 384.907 478.016 376.245 481.073 367.663L515.344 282.24ZM538.265 398.495H627.12H627.125C630.166 397.505 632.604 395.203 633.765 392.224C647.505 358.547 661.02 325.027 674.459 290.973C675.428 288.51 676.099 285.968 677.073 282.911C674.235 282.911 672.146 282.536 669.98 282.536H591.657C587.011 281.973 582.698 285.051 581.725 289.629C572.912 312.4 563.73 335.025 554.694 357.723L538.265 398.495ZM369.745 250.801C343.838 216.525 319.87 184.495 295.526 152.837C293.396 151.233 290.646 150.686 288.063 151.343C262.079 158.139 236.167 165.307 210.333 172.321C208.391 172.842 206.526 173.665 203.911 174.634C224.969 202.483 245.349 229.587 266.037 256.77V256.775C268.078 258.624 270.745 259.634 273.5 259.608C289.792 260.431 306.115 260.431 322.407 259.608C337.714 257.817 352.724 253.858 369.746 250.801L369.745 250.801ZM166.958 294.405C167.12 281.895 160.589 270.249 149.838 263.853C139.083 257.457 125.734 257.291 114.817 263.405C103.9 269.52 97.0769 280.999 96.9209 293.509C96.7594 306.02 103.285 317.665 114.041 324.061C124.796 330.452 138.145 330.624 149.062 324.509C159.974 318.39 166.797 306.916 166.958 294.405Z" fill="black"/>
<path d="M429.934 548.573L344.215 495.183C326.819 484.282 312.559 492.198 312.559 512.729V624.057C312.559 644.588 326.819 652.505 344.215 641.604L429.934 588.145C447.106 577.244 447.106 559.473 429.934 548.572V548.573Z" fill="black"/>
</g>
<defs>
<filter id="filter0_d_3_163" x="0.325439" y="0.0936279" width="754.696" height="754.504" filterUnits="userSpaceOnUse" color-interpolation-filters="sRGB">
<feFlood flood-opacity="0" result="BackgroundImageFix"/>
<feColorMatrix in="SourceAlpha" type="matrix" values="0 0 0 0 0 0 0 0 0 0 0 0 0 0 0 0 0 0 127 0" result="hardAlpha"/>
<feOffset dy="4"/>
<feGaussianBlur stdDeviation="2"/>
<feComposite in2="hardAlpha" operator="out"/>
<feColorMatrix type="matrix" values="0 0 0 0 0 0 0 0 0 0 0 0 0 0 0 0 0 0 0.25 0"/>
<feBlend mode="normal" in2="BackgroundImageFix" result="effect1_dropShadow_3_163"/>
<feBlend mode="normal" in="SourceGraphic" in2="effect1_dropShadow_3_163" result="shape"/>
</filter>
</defs>
</svg>
