<?xml version="1.0" encoding="UTF-8"?>
<svg width="700pt" height="700pt" version="1.1" viewBox="0 0 700 700" xmlns="http://www.w3.org/2000/svg">
 <path d="m258.51 346.75-130.88 130.88c-6.8242 6.8242-6.8242 17.922 0 24.746 6.8242 6.8242 17.922 6.8242 24.746 0l132.63-132.63c28.508 20.109 63.262 31.938 100.75 31.938 96.602 0 175-78.418 175-175 0-96.602-78.398-175-175-175-96.582 0-175 78.398-175 175 0 46.461 18.164 88.727 47.758 120.07zm127.24-260.07c77.281 0 140 62.719 140 140 0 77.262-62.719 140-140 140-77.262 0-140-62.738-140-140 0-77.281 62.738-140 140-140z" fill-rule="evenodd"/>
</svg>
