<svg width="545" height="498" viewBox="0 0 545 498" fill="none" xmlns="http://www.w3.org/2000/svg">
<path fill-rule="evenodd" clip-rule="evenodd" d="M40.6667 104.4C49.7136 111.416 60.828 115.233 72.276 115.254C100.073 115.285 188.755 115.317 453.396 115.317C464.854 115.301 475.98 111.483 485.036 104.463C538.672 62.2332 526.385 3.1345 516.161 1.1705H516.156C513.458 0.451758 510.583 1.17571 508.542 3.07676C473 36.2168 433.943 36.2168 405.422 36.2168L120.262 36.222C91.7403 36.222 52.683 36.222 17.1416 3.08197V3.07676C15.1052 1.1705 12.225 0.451704 9.5271 1.1705C-1.1917 3.11317 -12.4889 62.5825 40.6671 104.4L40.6667 104.4ZM17.3907 24.4413C54.4374 52.4307 93.5521 52.4307 120.26 52.4307H405.42C432.139 52.4307 471.243 52.4307 508.289 24.4467C509.107 40.5093 505.295 68.416 475.112 91.6547V91.6495C468.898 96.4776 461.263 99.1025 453.399 99.1183C188.772 99.1183 100.092 99.0818 72.292 99.0558C33.7347 97.6703 13.344 41.2904 17.3907 24.4411V24.4413Z" fill="black"/>
<path fill-rule="evenodd" clip-rule="evenodd" d="M534.76 477.293C521.369 477.361 521.369 497.705 534.76 497.772C548.145 497.704 548.145 477.36 534.76 477.293Z" fill="black"/>
<path fill-rule="evenodd" clip-rule="evenodd" d="M494.533 304.533C496.679 304.533 498.742 303.679 500.263 302.158C501.783 300.638 502.637 298.58 502.637 296.429V244.517C502.637 242.366 501.783 240.304 500.263 238.788C498.742 237.267 496.684 236.413 494.533 236.413H472.299V154.23H481.971C492.413 154.21 492.689 138.074 481.971 138.022H55.1438C44.7012 138.043 44.425 154.178 55.1438 154.23H74.3372V236.413H42.5825C38.1085 236.413 34.4836 240.043 34.4836 244.517C36.968 312.424 21.0569 304.309 74.3436 304.533L74.3384 479.987H42.5837C32.0264 480.023 31.9534 496.148 42.5837 496.195H175.073C185.63 496.153 185.703 480.033 175.073 479.987H150.98V337.8C150.933 327.217 134.818 327.196 134.772 337.8V412.393H90.5477V304.539H395.668C395.699 305.559 395.61 479.125 395.699 479.992H365.292C354.735 480.028 354.662 496.153 365.292 496.2H494.532C505.09 496.158 505.163 480.039 494.532 479.992H472.272C472.361 479.674 472.272 305.005 472.304 304.539L494.533 304.533ZM411.867 154.227H456.091V236.409H411.867V154.227ZM150.973 154.227H216.692V202.123C216.692 204.269 217.546 206.331 219.067 207.852C220.588 209.373 222.65 210.227 224.796 210.227H312.312C314.463 210.227 316.526 209.373 318.047 207.852C319.562 206.331 320.416 204.269 320.416 202.123V154.227H395.667V236.409H150.974L150.973 154.227ZM90.5413 154.227H134.765V236.409H90.5413V154.227ZM456.088 412.107H411.864V304.523H456.088V412.107ZM50.6746 288.315V252.607H486.435V288.309L50.6746 288.315Z" fill="black"/>
</svg>
